<svg width="1800" height="1000" viewBox="0 0 1800 1000" fill="none" xmlns="http://www.w3.org/2000/svg">
  <defs>
    <linearGradient id="bg" x1="0" y1="0" x2="1800" y2="1000" gradientUnits="userSpaceOnUse">
      <stop stop-color="#070A12"/>
      <stop offset="0.42" stop-color="#10172A"/>
      <stop offset="1" stop-color="#030712"/>
    </linearGradient>
    <radialGradient id="purple" cx="0" cy="0" r="1" gradientUnits="userSpaceOnUse" gradientTransform="translate(360 220) rotate(50) scale(520 360)">
      <stop stop-color="#7C3AED" stop-opacity="0.55"/>
      <stop offset="1" stop-color="#7C3AED" stop-opacity="0"/>
    </radialGradient>
    <radialGradient id="cyan" cx="0" cy="0" r="1" gradientUnits="userSpaceOnUse" gradientTransform="translate(1420 680) rotate(90) scale(560 420)">
      <stop stop-color="#06B6D4" stop-opacity="0.42"/>
      <stop offset="1" stop-color="#06B6D4" stop-opacity="0"/>
    </radialGradient>
    <radialGradient id="green" cx="0" cy="0" r="1" gradientUnits="userSpaceOnUse" gradientTransform="translate(1160 160) rotate(30) scale(380 300)">
      <stop stop-color="#22C55E" stop-opacity="0.28"/>
      <stop offset="1" stop-color="#22C55E" stop-opacity="0"/>
    </radialGradient>
    <linearGradient id="line" x1="210" y1="510" x2="1590" y2="510" gradientUnits="userSpaceOnUse">
      <stop stop-color="#4F46E5" stop-opacity="0.1"/>
      <stop offset="0.5" stop-color="#38BDF8" stop-opacity="0.75"/>
      <stop offset="1" stop-color="#22C55E" stop-opacity="0.12"/>
    </linearGradient>
    <filter id="glow">
      <feGaussianBlur stdDeviation="9" result="blur"/>
      <feMerge>
        <feMergeNode in="blur"/>
        <feMergeNode in="SourceGraphic"/>
      </feMerge>
    </filter>
  </defs>
  <rect width="1800" height="1000" fill="url(#bg)"/>
  <rect width="1800" height="1000" fill="url(#purple)"/>
  <rect width="1800" height="1000" fill="url(#cyan)"/>
  <rect width="1800" height="1000" fill="url(#green)"/>
  <path d="M0 850 C280 760 430 900 680 790 C930 680 1030 600 1290 650 C1490 690 1640 740 1800 660 L1800 1000 L0 1000 Z" fill="#0F172A" opacity="0.35"/>
  <path d="M0 210 C220 160 360 250 560 200 C780 145 930 120 1160 180 C1400 245 1560 230 1800 150 L1800 0 L0 0 Z" fill="#111827" opacity="0.28"/>
  <g opacity="0.22" stroke="#94A3B8" stroke-width="1">
    <path d="M180 150 L360 300 L620 260 L860 410 L1120 360 L1440 520 L1640 430"/>
    <path d="M260 780 L480 620 L760 700 L980 560 L1260 690 L1510 610"/>
    <path d="M560 180 L560 700"/>
    <path d="M860 410 L860 700"/>
    <path d="M1260 690 L1260 360"/>
  </g>
  <g stroke="url(#line)" stroke-width="3" stroke-linecap="round" filter="url(#glow)">
    <path d="M220 520 L470 405 L720 500 L950 390 L1220 510 L1510 430"/>
    <path d="M470 405 L620 260"/>
    <path d="M720 500 L860 700"/>
    <path d="M950 390 L1120 360"/>
    <path d="M1220 510 L1440 520"/>
  </g>
  <g filter="url(#glow)">
    <circle cx="220" cy="520" r="18" fill="#4F46E5"/>
    <circle cx="470" cy="405" r="14" fill="#38BDF8"/>
    <circle cx="720" cy="500" r="16" fill="#22C55E"/>
    <circle cx="950" cy="390" r="13" fill="#A78BFA"/>
    <circle cx="1220" cy="510" r="18" fill="#06B6D4"/>
    <circle cx="1510" cy="430" r="15" fill="#2DD4BF"/>
    <circle cx="620" cy="260" r="10" fill="#60A5FA"/>
    <circle cx="860" cy="700" r="12" fill="#34D399"/>
    <circle cx="1120" cy="360" r="11" fill="#C084FC"/>
    <circle cx="1440" cy="520" r="12" fill="#38BDF8"/>
  </g>
  <g opacity="0.18">
    <circle cx="260" cy="780" r="220" fill="#4F46E5"/>
    <circle cx="1510" cy="240" r="260" fill="#06B6D4"/>
    <circle cx="1220" cy="760" r="190" fill="#22C55E"/>
  </g>
  <g opacity="0.9">
    <rect x="630" y="345" width="540" height="310" rx="34" fill="#020617" stroke="#38BDF8" stroke-opacity="0.28"/>
    <rect x="665" y="380" width="470" height="42" rx="14" fill="#0F172A" stroke="#334155"/>
    <circle cx="700" cy="401" r="7" fill="#EF4444"/>
    <circle cx="724" cy="401" r="7" fill="#F59E0B"/>
    <circle cx="748" cy="401" r="7" fill="#22C55E"/>
    <rect x="700" y="470" width="160" height="105" rx="18" fill="#111827" stroke="#4F46E5"/>
    <path d="M735 535 L765 505 L790 528 L825 486" stroke="#38BDF8" stroke-width="10" stroke-linecap="round" stroke-linejoin="round"/>
    <rect x="900" y="470" width="160" height="105" rx="18" fill="#111827" stroke="#22C55E"/>
    <path d="M950 505 H1010 M950 535 H990" stroke="#22C55E" stroke-width="10" stroke-linecap="round"/>
    <rect x="700" y="600" width="360" height="24" rx="12" fill="#1E293B"/>
    <rect x="700" y="640" width="260" height="18" rx="9" fill="#334155"/>
  </g>
</svg>