<svg width="900" height="900" viewBox="0 0 900 900" fill="none" xmlns="http://www.w3.org/2000/svg">
  <defs>
    <linearGradient id="mockBg" x1="80" y1="70" x2="820" y2="840" gradientUnits="userSpaceOnUse">
      <stop stop-color="#111827"/>
      <stop offset="0.5" stop-color="#0F172A"/>
      <stop offset="1" stop-color="#020617"/>
    </linearGradient>
    <linearGradient id="accent" x1="150" y1="160" x2="740" y2="760" gradientUnits="userSpaceOnUse">
      <stop stop-color="#6366F1"/>
      <stop offset="0.5" stop-color="#06B6D4"/>
      <stop offset="1" stop-color="#22C55E"/>
    </linearGradient>
    <radialGradient id="halo" cx="0" cy="0" r="1" gradientUnits="userSpaceOnUse" gradientTransform="translate(450 450) rotate(90) scale(420 360)">
      <stop stop-color="#38BDF8" stop-opacity="0.22"/>
      <stop offset="1" stop-color="#38BDF8" stop-opacity="0"/>
    </radialGradient>
    <filter id="softGlow">
      <feGaussianBlur stdDeviation="10" result="blur"/>
      <feMerge>
        <feMergeNode in="blur"/>
        <feMergeNode in="SourceGraphic"/>
      </feMerge>
    </filter>
  </defs>
  <rect width="900" height="900" rx="72" fill="url(#mockBg)"/>
  <rect width="900" height="900" rx="72" fill="url(#halo)"/>
  <path d="M120 680 C240 560 330 730 470 600 C580 500 660 470 790 520" stroke="url(#accent)" stroke-width="8" stroke-linecap="round" opacity="0.55" filter="url(#softGlow)"/>
  <g opacity="0.2" stroke="#94A3B8">
    <path d="M150 190 L260 300 L390 250 L520 360 L680 310"/>
    <path d="M210 610 L330 500 L460 560 L590 470"/>
  </g>
  <g filter="url(#softGlow)">
    <circle cx="150" cy="190" r="14" fill="#6366F1"/>
    <circle cx="260" cy="300" r="11" fill="#06B6D4"/>
    <circle cx="390" cy="250" r="13" fill="#22C55E"/>
    <circle cx="520" cy="360" r="12" fill="#38BDF8"/>
    <circle cx="680" cy="310" r="10" fill="#A78BFA"/>
    <circle cx="210" cy="610" r="12" fill="#34D399"/>
    <circle cx="330" cy="500" r="10" fill="#0EA5E9"/>
    <circle cx="460" cy="560" r="13" fill="#22C55E"/>
    <circle cx="590" cy="470" r="10" fill="#F59E0B"/>
  </g>
  <g>
    <rect x="170" y="145" width="560" height="420" rx="34" fill="#020617" stroke="#334155"/>
    <rect x="170" y="145" width="560" height="72" rx="34" fill="#0F172A" stroke="#334155"/>
    <path d="M200 181 H690" stroke="#334155"/>
    <circle cx="210" cy="181" r="8" fill="#EF4444"/>
    <circle cx="238" cy="181" r="8" fill="#F59E0B"/>
    <circle cx="266" cy="181" r="8" fill="#22C55E"/>
    <rect x="220" y="260" width="180" height="110" rx="22" fill="#111827" stroke="#4F46E5"/>
    <path d="M258 325 L292 292 L326 325 L370 278" stroke="#6366F1" stroke-width="12" stroke-linecap="round" stroke-linejoin="round"/>
    <rect x="500" y="260" width="180" height="110" rx="22" fill="#111827" stroke="#22C55E"/>
    <path d="M555 300 H635 M555 335 H610" stroke="#22C55E" stroke-width="12" stroke-linecap="round"/>
    <rect x="220" y="410" width="460" height="30" rx="15" fill="#1E293B"/>
    <rect x="220" y="470" width="350" height="24" rx="12" fill="#334155"/>
    <rect x="220" y="515" width="260" height="20" rx="10" fill="#475569"/>
  </g>
  <g>
    <rect x="240" y="620" width="420" height="110" rx="28" fill="#0F172A" stroke="#38BDF8" stroke-opacity="0.35"/>
    <path d="M300 675 H590" stroke="#38BDF8" stroke-width="10" stroke-linecap="round"/>
    <path d="M300 705 H520" stroke="#22C55E" stroke-width="10" stroke-linecap="round"/>
    <circle cx="620" cy="675" r="24" fill="url(#accent)"/>
    <path d="M610 675 L618 683 L634 665" stroke="#020617" stroke-width="5" stroke-linecap="round" stroke-linejoin="round"/>
  </g>
  <g opacity="0.85">
    <rect x="110" y="725" width="120" height="44" rx="16" fill="#111827" stroke="#4F46E5"/>
    <text x="170" y="753" text-anchor="middle" font-family="Inter, Arial, sans-serif" font-size="16" font-weight="700" fill="#E2E8F0">AUTO</text>
    <rect x="670" y="120" width="120" height="44" rx="16" fill="#111827" stroke="#22C55E"/>
    <text x="730" y="148" text-anchor="middle" font-family="Inter, Arial, sans-serif" font-size="16" font-weight="700" fill="#E2E8F0">LIVE</text>
  </g>
</svg>